<?xml version="1.0" standalone="no"?><!DOCTYPE svg PUBLIC "-//W3C//DTD SVG 1.1//EN" "http://www.w3.org/Graphics/SVG/1.1/DTD/svg11.dtd"><svg t="1629019878496" class="icon" viewBox="0 0 1024 1024" version="1.1" xmlns="http://www.w3.org/2000/svg" p-id="2081" xmlns:xlink="http://www.w3.org/1999/xlink" width="200" height="200"><defs><style type="text/css"></style></defs><path d="M170.24 172.8m54.5792 0l187.8016 0q54.5792 0 54.5792 54.5792l0 187.8016q0 54.5792-54.5792 54.5792l-187.8016 0q-54.5792 0-54.5792-54.5792l0-187.8016q0-54.5792 54.5792-54.5792Z" fill="#1296db" p-id="2082"></path><path d="M172.8 554.24m54.5792 0l187.8016 0q54.5792 0 54.5792 54.5792l0 187.8016q0 54.5792-54.5792 54.5792l-187.8016 0q-54.5792 0-54.5792-54.5792l0-187.8016q0-54.5792 54.5792-54.5792Z" fill="#1296db" p-id="2083"></path><path d="M556.8 175.36m54.5792 0l187.8016 0q54.5792 0 54.5792 54.5792l0 187.8016q0 54.5792-54.5792 54.5792l-187.8016 0q-54.5792 0-54.5792-54.5792l0-187.8016q0-54.5792 54.5792-54.5792Z" fill="#1296db" p-id="2084"></path><path d="M705.28 697.6m-148.48 0a148.48 148.48 0 1 0 296.96 0 148.48 148.48 0 1 0-296.96 0Z" fill="#1296db" p-id="2085"></path></svg>